<?xml version="1.0" encoding="utf-8"?>
<!-- Generator: Adobe Illustrator 27.5.0, SVG Export Plug-In . SVG Version: 6.00 Build 0)  -->
<svg version="1.1" xmlns="http://www.w3.org/2000/svg" xmlns:xlink="http://www.w3.org/1999/xlink" x="0px" y="0px"
	 viewBox="0 0 500 500" style="enable-background:new 0 0 500 500;" xml:space="preserve">
<g id="BACKGROUND">
	<g>
		<g>
			<g>
				<path style="fill:#F9C302;" d="M90.364,141.033c-2.628,1.308-5.222,2.89-7.392,5.154c-2.53,2.457-4.767,5.364-6.548,8.607
					c-1.79,3.234-3.259,6.704-4.316,10.332c-1.064,3.619-1.775,7.388-1.962,11.185c0.81-3.675,1.911-7.21,3.146-10.651
					c1.27-3.425,2.757-6.721,4.495-9.816c5.726-10.195,40.252-4.747,41.735-14.744C120.084,137.308,105.716,132.315,90.364,141.033z
					 M76.865,138.79c-1.493,2.628-2.667,5.498-3.549,8.475c-0.835,2.995-1.45,6.068-1.769,9.182
					c-0.322,3.109-0.462,6.251-0.208,9.361c0.112-1.554,0.226-3.098,0.432-4.63c0.16-1.535,0.369-3.062,0.628-4.574
					c0.516-3.023,0.894-6.127,1.983-8.915c4.344-11.113,27.222-10.039,27.276-18.886c0.021-3.389-10.525-5.788-20.269,4.223
					C79.668,134.676,78.124,136.608,76.865,138.79z M69.753,167.124c-0.199-4.618-0.523-9.236-0.357-13.846
					c0.685-18.998,28.897-41.574,21.944-52.249c-2.606-4.001-16.686,4.235-20.647,25.978c-0.949,4.031-1.657,8.153-2.072,12.318
					c-0.478,4.63-0.705,9.299-0.676,13.961c0.041,4.662,0.234,9.322,0.7,13.949c0.457,4.625,1.064,9.234,2.043,13.746
					c-0.185-2.316-0.399-4.618-0.521-6.933C69.994,171.741,69.858,169.433,69.753,167.124z M66.592,152.808
					c-0.831-3.485-1.855-6.91-3.059-10.243c-1.072-3.003-2.354-5.899-3.799-8.668c-6.933-15.223-18.941-17.835-20.153-14.197
					c-3.233,9.706,23.058,20.503,25.927,33.466c0.767,3.466,1.571,6.923,2.267,10.417c0.344,1.748,0.665,3.504,0.958,5.268
					c0.332,1.757,0.594,3.527,0.88,5.301c-0.095-3.611-0.486-7.201-0.991-10.765C68.123,159.82,67.414,156.295,66.592,152.808z
					 M94.007,151.864c-2.413,0.022-4.865,0.463-7.169,1.46c-2.491,1.087-4.846,2.592-7.006,4.393
					c-4.252,3.692-7.914,8.324-10.434,13.714c1.735-2.291,3.575-4.424,5.44-6.495c1.888-2.044,3.888-3.912,5.907-5.736
					c6.841-6.179,26.504,9.806,30.805,2.826C113.18,159.383,106.212,150.747,94.007,151.864z M33.861,151.069
					c1.824,8.338,25.117,1.878,29.555,10.557c1.31,2.562,2.589,5.156,3.707,7.867c1.089,2.726,2.136,5.499,3.035,8.374
					c-0.663-6.095-2.625-11.974-5.43-17.231c-1.448-2.602-3.17-5.01-5.149-7.088c-1.833-1.914-3.977-3.374-6.216-4.427
					C42.352,142.856,33.17,147.912,33.861,151.069z"/>
			</g>
			<polygon style="fill:#C0BED3;" points="77.909,199.475 63.821,199.475 58.721,163.149 83.009,163.149 			"/>
			<rect x="43.519" y="203.045" style="fill:#B8B6CC;" width="75.082" height="202.226"/>
			<rect x="101.102" y="203.045" style="fill:#ABAABD;" width="17.5" height="202.226"/>
			<rect x="26.019" y="198.981" style="fill:#C0BED3;" width="17.5" height="236.734"/>
			<rect x="101.102" y="198.981" style="fill:#C0BED3;" width="17.5" height="236.734"/>
			<rect x="101.102" y="203.045" style="fill:#C0BED3;" width="17.5" height="202.226"/>
			<path style="fill:#E2E0F4;" d="M121.436,408.59H40.685V198.981h80.751V408.59z M46.354,401.953h69.413V206.364H46.354V401.953z"
				/>
			<rect x="40.685" y="355.802" style="fill:#E2E0F4;" width="5.669" height="79.913"/>
			<rect x="115.767" y="355.802" style="fill:#E2E0F4;" width="5.669" height="79.913"/>
			<g>
				<g>
					<rect x="86.727" y="321.638" style="fill:#B0AFC2;" width="18.236" height="38"/>
					
						<rect x="104.963" y="321.638" transform="matrix(-1 -1.224647e-16 1.224647e-16 -1 213.0022 681.2764)" style="fill:#E2E0F4;" width="3.076" height="38"/>
				</g>
				<g>
					<rect x="85.189" y="327.906" style="fill:#C0BED3;" width="15.228" height="31.732"/>
					
						<rect x="100.417" y="327.906" transform="matrix(-1 -1.224647e-16 1.224647e-16 -1 203.4028 687.5445)" style="fill:#E5E3F4;" width="2.569" height="31.732"/>
				</g>
				<g>
					<rect x="76.84" y="321.638" style="fill:#C0BED3;" width="18.236" height="38"/>
					
						<rect x="95.076" y="321.638" transform="matrix(-1 -1.224647e-16 1.224647e-16 -1 193.2282 681.2764)" style="fill:#E2E0F4;" width="3.076" height="38"/>
				</g>
				<g>
					<rect x="70.153" y="325.385" style="fill:#C0BED3;" width="16.438" height="34.254"/>
					
						<rect x="86.591" y="325.385" transform="matrix(-1 -1.224647e-16 1.224647e-16 -1 175.9545 685.0229)" style="fill:#E2E0F4;" width="2.773" height="34.254"/>
				</g>
				<g>
					<rect x="68.766" y="331.035" style="fill:#C0BED3;" width="13.727" height="28.604"/>
					
						<rect x="82.493" y="331.035" transform="matrix(-1 -1.224647e-16 1.224647e-16 -1 167.3016 690.673)" style="fill:#E5E3F4;" width="2.315" height="28.604"/>
				</g>
				<g>
					<rect x="61.241" y="325.385" style="fill:#B0AFC2;" width="16.438" height="34.254"/>
					
						<rect x="77.679" y="325.385" transform="matrix(-1 -1.224647e-16 1.224647e-16 -1 158.1301 685.0229)" style="fill:#E2E0F4;" width="2.773" height="34.254"/>
				</g>
			</g>
			<path style="fill:#FF9D42;" d="M118.039,212.626"/>
			<g>
				<path style="fill:#FFFFFF;" d="M66.029,285.002c0,0,14.824-6.953,12.333-11.236C75.87,269.482,66.029,285.002,66.029,285.002z"
					/>
				<path style="fill:#FFFFFF;" d="M66.441,285.537c0,0,14.212-17.018,9.909-20.921C72.048,260.712,66.441,285.537,66.441,285.537z"
					/>
				<path style="fill:#FFFFFF;" d="M65.187,285.537c0,0,7.668-22.411,3.47-23.901C64.46,260.146,60.371,277.218,65.187,285.537z"/>
				<path style="fill:#FFFFFF;" d="M65.58,285.697c0,0-4.514-23.413-10.645-21.009C48.805,267.093,65.58,285.697,65.58,285.697z"/>
				<g>
					<path style="fill:#B8B6CC;" d="M68.657,261.636c-0.553,1.812-1.039,3.642-1.501,5.476c-0.452,1.837-0.884,3.679-1.209,5.541
						c-0.344,1.857-0.637,3.727-0.779,5.611c-0.142,1.881-0.198,3.777,0.039,5.66c-0.341-1.868-0.361-3.781-0.256-5.675
						c0.098-1.898,0.395-3.778,0.719-5.647C66.38,268.874,67.363,265.198,68.657,261.636z"/>
				</g>
				<g>
					<path style="fill:#B8B6CC;" d="M55.807,265.898c1.631,3.093,3.164,6.234,4.705,9.371c1.511,3.151,3.03,6.299,4.45,9.494
						c-1.632-3.093-3.164-6.234-4.705-9.371C58.746,272.241,57.227,269.093,55.807,265.898z"/>
				</g>
				<g>
					<path style="fill:#B8B6CC;" d="M66.809,284.621c1.397-3.074,2.891-6.099,4.377-9.128c1.516-3.015,3.024-6.033,4.63-9.002
						c-1.396,3.074-2.89,6.099-4.377,9.128C69.924,278.633,68.415,281.651,66.809,284.621z"/>
				</g>
				<g>
					<path style="fill:#B8B6CC;" d="M76.53,275.556l-2.745,2.63c-0.912,0.879-1.837,1.743-2.731,2.639
						c-0.91,0.88-1.805,1.774-2.672,2.694c-0.434,0.459-0.869,0.92-1.266,1.409c-0.418,0.475-0.802,0.978-1.086,1.546
						c0.502-1.174,1.37-2.143,2.191-3.103c0.839-0.955,1.739-1.851,2.635-2.749C72.683,278.862,74.554,277.148,76.53,275.556z"/>
				</g>
				<g>
					<path style="fill:#FFCF42;" d="M71.737,286.519v-2.596H60.642v2.595c0,2.125-0.83,4.156-2.217,5.868
						c-1.219,1.505-1.919,3.376-1.858,5.4c0.136,4.511,4.187,8.266,9.156,8.479c5.529,0.237,10.095-3.759,10.095-8.724
						c0-1.943-0.701-3.735-1.885-5.184C72.544,290.66,71.737,288.632,71.737,286.519z"/>
				</g>
				<g>
					<path style="fill:#B8B6CC;" d="M75.816,297.541c-3.199,0.117-6.398,0.125-9.597,0.142c-3.199-0.016-6.398-0.024-9.597-0.142
						c3.199-0.118,6.398-0.125,9.597-0.142C69.418,297.416,72.617,297.425,75.816,297.541z"/>
				</g>
				<g>
					<path style="fill:#B8B6CC;" d="M75.085,294.211c-2.966,0.117-5.932,0.125-8.897,0.142c-2.966-0.016-5.932-0.024-8.898-0.142
						c2.966-0.118,5.932-0.125,8.898-0.141C69.154,294.086,72.119,294.094,75.085,294.211z"/>
				</g>
			</g>
			<rect x="43.519" y="359.314" style="fill:#E2E0F4;" width="75.082" height="3.319"/>
			<rect x="43.519" y="306.012" style="fill:#E2E0F4;" width="75.082" height="3.319"/>
			<g>
				<polygon style="fill:#C0BED3;" points="71.977,253.709 79.319,233.648 82.947,253.709 				"/>
				<polygon style="fill:#C0BED3;" points="98.486,253.275 79.275,253.275 75.624,222.133 94.835,222.133 				"/>
				<polygon style="fill:#E2E0F4;" points="99.781,253.275 80.57,253.275 76.919,222.133 96.13,222.133 				"/>
				<polygon style="fill:#FFFFFF;" points="96.314,249.899 83.246,249.899 80.386,225.51 93.454,225.51 				"/>
				<path style="fill:#B8B6CC;" d="M82.427,242.917c0,0,4.641-2.778,6.312-1.085s6.277-3.002,6.277-3.002l1.298,11.069H83.246
					L82.427,242.917z"/>
				<g>
					<path style="fill:#FFFFFF;" d="M76.919,233.179c0.509,3.336,0.91,6.684,1.319,10.032c0.377,3.351,0.762,6.702,1.038,10.065
						c-0.51-3.336-0.91-6.684-1.319-10.032C77.58,239.892,77.196,236.542,76.919,233.179z"/>
				</g>
			</g>
			<rect x="43.519" y="252.709" style="fill:#E2E0F4;" width="75.082" height="3.319"/>
		</g>
		
			<circle style="fill:#E2E0F4;stroke:#FFFFFF;stroke-width:0.5669;stroke-linecap:round;stroke-linejoin:round;stroke-miterlimit:10;" cx="149.685" cy="78.449" r="31.218"/>
		<path style="fill:#C0BED3;" d="M149.686,64.522c9.968,0,19.578,0.502,28.609,1.432c-4.82-11.02-15.812-18.723-28.609-18.723
			c-12.797,0-23.79,7.703-28.61,18.723C130.107,65.024,139.717,64.522,149.686,64.522z"/>
		
			<line style="fill:none;stroke:#C0BED3;stroke-width:2.8347;stroke-miterlimit:10;" x1="149.686" y1="54.672" x2="149.686" y2="0"/>
	</g>
</g>
<g id="OBJECTS">
	<g>
		<g>
			<path style="fill:#006BDC;" d="M457.663,196.82H196.58c-5.893,0-10.67,4.777-10.67,10.67v207.469h282.423V207.49
				C468.333,201.597,463.556,196.82,457.663,196.82z"/>
			<path style="fill:#005CBF;" d="M454.663,196.82H193.58c-5.893,0-10.67,4.777-10.67,10.67v207.469h282.423V207.49
				C465.333,201.597,460.556,196.82,454.663,196.82z"/>
			
				<rect x="230.787" y="171.002" transform="matrix(-1.836970e-16 1 -1 -1.836970e-16 630.6664 -17.5772)" style="fill:#FFFFFF;" width="186.67" height="271.085"/>
			<g style="opacity:0.5;">
				<g>
					<g>
						<rect x="198.422" y="224.202" style="fill:#D3D1E8;" width="19.327" height="24.333"/>
						<rect x="198.422" y="251.535" style="fill:#D3D1E8;" width="19.327" height="1.667"/>
					</g>
					<g>
						<rect x="232.225" y="224.202" style="fill:#D3D1E8;" width="19.327" height="24.333"/>
						<rect x="232.225" y="251.535" style="fill:#D3D1E8;" width="19.327" height="1.667"/>
					</g>
					<g>
						<rect x="266.029" y="224.202" style="fill:#D3D1E8;" width="19.327" height="24.333"/>
						<rect x="266.029" y="251.535" style="fill:#D3D1E8;" width="19.327" height="1.667"/>
					</g>
					<g>
						<rect x="299.832" y="224.202" style="fill:#D3D1E8;" width="19.327" height="24.333"/>
						<rect x="299.832" y="251.535" style="fill:#D3D1E8;" width="19.327" height="1.667"/>
					</g>
				</g>
				<g>
					<g>
						<rect x="198.422" y="265.077" style="fill:#D3D1E8;" width="19.327" height="24.333"/>
						<rect x="198.422" y="292.411" style="fill:#D3D1E8;" width="19.327" height="1.667"/>
					</g>
					<g>
						<rect x="232.225" y="265.077" style="fill:#D3D1E8;" width="19.327" height="24.333"/>
						<rect x="232.225" y="292.411" style="fill:#D3D1E8;" width="19.327" height="1.667"/>
					</g>
					<g>
						<rect x="266.029" y="265.077" style="fill:#D3D1E8;" width="19.327" height="24.333"/>
						<rect x="266.029" y="292.411" style="fill:#D3D1E8;" width="19.327" height="1.667"/>
					</g>
					<g>
						<rect x="299.832" y="265.077" style="fill:#D3D1E8;" width="19.327" height="24.333"/>
						<rect x="299.832" y="292.411" style="fill:#D3D1E8;" width="19.327" height="1.667"/>
					</g>
				</g>
				<g>
					<g>
						<rect x="198.422" y="305.953" style="fill:#D3D1E8;" width="19.327" height="24.333"/>
						<rect x="198.422" y="333.287" style="fill:#D3D1E8;" width="19.327" height="1.667"/>
					</g>
					<g>
						<rect x="232.225" y="305.953" style="fill:#D3D1E8;" width="19.327" height="24.333"/>
						<rect x="232.225" y="333.287" style="fill:#D3D1E8;" width="19.327" height="1.667"/>
					</g>
					<g>
						<rect x="266.029" y="305.953" style="fill:#D3D1E8;" width="19.327" height="24.333"/>
						<rect x="266.029" y="333.287" style="fill:#D3D1E8;" width="19.327" height="1.667"/>
					</g>
					<g>
						<rect x="299.832" y="305.953" style="fill:#D3D1E8;" width="19.327" height="24.333"/>
						<rect x="299.832" y="333.287" style="fill:#D3D1E8;" width="19.327" height="1.667"/>
					</g>
				</g>
			</g>
			
				<rect x="319.182" y="259.397" transform="matrix(-1.836970e-16 1 -1 -1.836970e-16 719.0616 70.8179)" style="fill:#D3D1E8;" width="9.88" height="271.085"/>
			
				<rect x="442.319" y="382.534" transform="matrix(-1.836970e-16 1 -1 -1.836970e-16 842.1984 -52.3188)" style="fill:#C0BED3;" width="9.88" height="24.811"/>
			<path style="fill:#005CBF;" d="M468.333,436.22H42.379C34.99,436.22,29,430.23,29,422.841v-8.262h439.333V436.22z"/>
			<path style="fill:#006BDC;" d="M468.333,436.22H325.709c-7.389,0-13.379-5.99-13.379-13.379v-8.262h156.003V436.22z"/>
			
				<line style="fill:none;stroke:#002E5C;stroke-width:0.4252;stroke-linecap:round;stroke-linejoin:round;stroke-miterlimit:10;" x1="29.907" y1="419.087" x2="468.333" y2="419.087"/>
			
				<path style="fill:none;stroke:#002E5C;stroke-width:0.4252;stroke-linecap:round;stroke-linejoin:round;stroke-miterlimit:10;" d="
				M398.523,429.281H381.14c-1.36,0-2.473-1.113-2.473-2.473v-0.302c0-1.36,1.113-2.473,2.473-2.473h17.383
				c1.36,0,2.473,1.113,2.473,2.473v0.302C400.996,428.168,399.883,429.281,398.523,429.281z"/>
			
				<path style="fill:none;stroke:#002E5C;stroke-width:0.4252;stroke-linecap:round;stroke-linejoin:round;stroke-miterlimit:10;" d="
				M426.616,429.281h-17.383c-1.36,0-2.473-1.113-2.473-2.473v-0.302c0-1.36,1.113-2.473,2.473-2.473h17.383
				c1.36,0,2.473,1.113,2.473,2.473v0.302C429.089,428.168,427.976,429.281,426.616,429.281z"/>
			
				<path style="fill:none;stroke:#002E5C;stroke-width:0.4252;stroke-linecap:round;stroke-linejoin:round;stroke-miterlimit:10;" d="
				M454.709,429.281h-17.383c-1.36,0-2.473-1.113-2.473-2.473v-0.302c0-1.36,1.113-2.473,2.473-2.473h17.383
				c1.36,0,2.473,1.113,2.473,2.473v0.302C457.182,428.168,456.069,429.281,454.709,429.281z"/>
			<path style="fill:#006BDC;" d="M300.739,426.657h-98.946c1.708,5.562,6.388,9.563,11.909,9.563h98.946
				C307.127,436.22,302.446,432.219,300.739,426.657z"/>
			<path style="fill:#006BDC;" d="M135.104,426.657H36.159c1.708,5.562,6.388,9.563,11.909,9.563h98.946
				C141.492,436.22,136.812,432.219,135.104,426.657z"/>
			
				<polyline style="fill:none;stroke:#002E5C;stroke-width:0.4252;stroke-linecap:round;stroke-linejoin:round;stroke-miterlimit:10;" points="
				153.5,419.087 156.25,426.657 187.384,426.657 190.634,419.087 			"/>
			
				<line style="fill:none;stroke:#002E5C;stroke-width:0.4252;stroke-linecap:round;stroke-linejoin:round;stroke-miterlimit:10;" x1="182.91" y1="414.959" x2="468.333" y2="414.959"/>
			
				<path style="fill:none;stroke:#002E5C;stroke-width:0.4252;stroke-linecap:round;stroke-linejoin:round;stroke-miterlimit:10;" d="
				M327.01,203.705c0,1.796-1.293,3.251-2.888,3.251c-1.595,0-2.888-1.456-2.888-3.251c0-1.795,1.293-3.251,2.888-3.251
				C325.717,200.454,327.01,201.91,327.01,203.705z"/>
		</g>
		<g>
			<path style="fill:#E1B89F;" d="M127.048,282.84c5.538-1.2,14.18,5.434,13.001,7.266c-0.764,1.187-4.016-2.572-5.306-1.552"/>
			<path style="fill:#E1B89F;" d="M136.39,288.784c3.549,3.818,6.3,7.402,5.829,8.057c-0.471,0.655-3.593-1.718-3.593-1.718
				s1.498,1.692,0.922,2.549c-0.576,0.857-2.278-0.499-2.278-0.499s1.253,1.595,0.408,2.271c-0.845,0.676-2.429-0.427-2.429-0.427
				s0.303,0.99-0.293,1.484c-0.595,0.494-3.497-1.832-5.616-3.366c-7.008-5.075-9.154-13.561-1.531-14.407"/>
			<g>
				<path style="fill:#002E5C;" d="M137.322,289.226c-0.494-0.19-0.928-0.47-1.366-0.744c-0.42-0.301-0.845-0.594-1.208-0.979
					c0.494,0.189,0.928,0.47,1.366,0.744C136.533,288.548,136.957,288.842,137.322,289.226z"/>
			</g>
			<path style="fill:#E1B89F;" d="M128.07,282.716l-11.526-12.084l8.786-12.709c-6.41-1.541-9.896-3.893-12.393-9.232
				c-0.021,0.033-0.042,0.067-0.062,0.099c-1.049,1.678-4.88,8.038-9.523,15.25c-11.191,17.385,24.838,29.065,24.838,29.065
				L128.07,282.716z"/>
			<path style="fill:#002E5C;" d="M116,252.167c0,0,5.885,7.584,8.068,7.584c1.723-2.401,1.723-2.401,1.723-2.401L116,252.167z"/>
			<g>
				<path style="fill:#F9C302;" d="M125.331,257.923l14.404-17.948c4.182-5.453-4.736-10.692-7.251-16.517
					c-0.538-1.246-6.486,4.465-19.546,25.233C115.435,254.03,118.921,256.382,125.331,257.923z"/>
			</g>
			<g>
				<path style="fill:#002E5C;" d="M136.592,293.151c0.577,0.423,1.087,0.907,1.619,1.366l0.777,0.711
					c0.261,0.234,0.515,0.477,0.791,0.703c-0.668-0.274-1.221-0.745-1.757-1.204C137.506,294.239,137.002,293.738,136.592,293.151z"
					/>
			</g>
			<g>
				<path style="fill:#002E5C;" d="M135.291,295.349c0.942,0.808,1.903,1.521,2.826,2.363c-0.286-0.125-0.564-0.268-0.826-0.434
					c-0.264-0.164-0.511-0.352-0.759-0.541C136.064,296.331,135.597,295.902,135.291,295.349z"/>
			</g>
			<g>
				<path style="fill:#002E5C;" d="M133.842,297.693c0.869,0.536,1.605,1.164,2.378,1.816c-0.499-0.137-0.922-0.432-1.328-0.728
					C134.507,298.456,134.128,298.12,133.842,297.693z"/>
			</g>
			<g>
				<path style="fill:#002E5C;" d="M127.034,255.256c-1.318,0.241-2.694,0.073-3.976-0.331c-1.289-0.404-2.472-1.096-3.535-1.919
					c-1.066-0.832-1.945-1.865-2.753-2.934c-0.384-0.549-0.726-1.128-1.086-1.69l-0.897-1.794l1.016,1.722
					c0.382,0.544,0.741,1.104,1.142,1.632c0.833,1.028,1.696,2.046,2.754,2.842c1.028,0.825,2.182,1.496,3.427,1.935
					C124.37,255.148,125.704,255.392,127.034,255.256z"/>
			</g>
			<path style="fill:#E1B89F;" d="M197.895,250.083c0-5.667,8.315-12.707,9.855-11.167c0.998,0.998-3.364,3.38-2.64,4.857"/>
			<g>
				<g>
					<path style="fill:#F9C302;" d="M107.137,425.934l-0.974,7.792h29.143c0,0-2.026-3.351-10.052-4.831
						c-0.312-2.727-0.312-2.727-0.312-2.727L107.137,425.934z"/>
				</g>
				<rect x="106.007" y="433.726" style="fill:#D3D1E8;" width="29.299" height="2.494"/>
				<g>
					<path style="fill:#FFFFFF;" d="M106.594,430.039c1.921-0.002,3.838,0.202,5.729,0.563c0.94,0.207,1.881,0.442,2.773,0.825
						c0.444,0.194,0.878,0.425,1.258,0.735c0.372,0.309,0.674,0.763,0.66,1.251c-0.036-0.488-0.363-0.88-0.745-1.142
						c-0.381-0.274-0.812-0.478-1.255-0.643c-0.887-0.333-1.813-0.566-2.747-0.75c-0.932-0.2-1.877-0.342-2.823-0.48
						C108.496,430.27,107.547,430.143,106.594,430.039z"/>
				</g>
				<g>
					<path style="fill:#FFFFFF;" d="M132.543,431.383c0.424,0.207,0.745,0.561,1.013,0.942c0.12,0.201,0.229,0.41,0.301,0.634
						c0.077,0.222,0.101,0.461,0.095,0.692c-0.199-0.421-0.379-0.81-0.633-1.172c-0.11-0.191-0.245-0.365-0.373-0.547
						L132.543,431.383z"/>
				</g>
			</g>
			<g>
				<g>
					<path style="fill:#F9C302;" d="M155.761,425.723l-0.974,7.792h29.143c0,0-2.026-3.351-10.052-4.831
						c-0.312-2.727-0.312-2.727-0.312-2.727L155.761,425.723z"/>
				</g>
				<rect x="154.631" y="433.515" style="fill:#D3D1E8;" width="29.299" height="2.494"/>
				<g>
					<path style="fill:#FFFFFF;" d="M155.218,429.828c1.921-0.002,3.838,0.202,5.729,0.563c0.94,0.207,1.881,0.442,2.773,0.825
						c0.444,0.194,0.878,0.425,1.258,0.735c0.372,0.309,0.675,0.763,0.66,1.252c-0.036-0.489-0.363-0.88-0.745-1.142
						c-0.381-0.274-0.812-0.478-1.255-0.643c-0.887-0.333-1.813-0.566-2.747-0.75c-0.932-0.2-1.877-0.342-2.823-0.479
						C157.12,430.059,156.171,429.932,155.218,429.828z"/>
				</g>
				<g>
					<path style="fill:#FFFFFF;" d="M181.167,431.226c0.424,0.207,0.745,0.561,1.013,0.942c0.12,0.201,0.229,0.411,0.301,0.634
						c0.077,0.222,0.1,0.461,0.095,0.692c-0.199-0.421-0.379-0.81-0.633-1.173c-0.11-0.19-0.245-0.365-0.373-0.547L181.167,431.226z
						"/>
				</g>
			</g>
			<path style="fill:#002E5C;" d="M127.84,279.577c-1.175,4.618-7.506,11.569-8.618,20.121c-2.021,15.545-1.372,27.326-1.25,30.23
				c0.562,13.338-3.519,40.258-13.834,98.187c8.268,0,18.537,0,26.805,0l9.663-116.037l12.692,48.458l-2.224,66.575l26-0.455
				l-2.531-66.144c0.033-4.554-6.611-45.356-8.821-56.19c-1.785-8.749-6.087-17.006-8.201-24.746
				C145.27,279.577,140.091,279.577,127.84,279.577z"/>
			<g>
				<path style="fill:#006BDC;" d="M105.992,417.518c4.158-0.117,8.317-0.125,12.475-0.142c4.158,0.016,8.317,0.024,12.475,0.142
					c-4.158,0.118-8.317,0.125-12.475,0.142C114.309,417.643,110.151,417.635,105.992,417.518z"/>
			</g>
			<g>
				<path style="fill:#006BDC;" d="M151.384,416.995c4.281-0.122,8.563-0.091,12.844-0.141c4.281,0.05,8.563,0.019,12.844,0.141
					c-4.281,0.122-8.563,0.091-12.844,0.141C159.947,417.086,155.666,417.117,151.384,416.995z"/>
			</g>
			<g>
				<path style="fill:#006BDC;" d="M122.654,311.455c4.846,0.014,9.687,0.181,14.531,0.266c4.841,0.186,9.684,0.291,14.523,0.549
					c-4.846-0.014-9.687-0.18-14.531-0.266C132.337,311.818,127.493,311.712,122.654,311.455z"/>
			</g>
			<g>
				<path style="fill:#006BDC;" d="M156.634,292.902c2.261,10.19,4.402,20.408,6.402,30.653c1.988,10.247,3.916,20.51,5.381,30.851
					c0.365,2.585,0.675,5.18,0.886,7.785c0.249,2.608,0.175,5.229,0.173,7.834l-0.049,15.657l-0.145,31.314l-0.049-31.314
					l-0.001-15.657c-0.006-2.612,0.06-5.219-0.196-7.812c-0.219-2.596-0.538-5.185-0.889-7.769
					c-1.433-10.335-3.331-20.603-5.289-30.854C160.866,313.344,158.796,303.113,156.634,292.902z"/>
			</g>
			<g>
				<path style="fill:#006BDC;" d="M135.306,311.911c-1.631,17.613-3.414,35.211-5.116,52.817
					c-1.802,17.596-3.524,35.2-5.398,52.789c1.631-17.613,3.414-35.211,5.116-52.817C131.711,347.105,133.433,329.5,135.306,311.911
					z"/>
			</g>
			
				<rect x="140.118" y="207.317" transform="matrix(0.9961 0.0879 -0.0879 0.9961 19.8426 -12.0492)" style="fill:#E1B89F;" width="13.091" height="23.689"/>
			<g>
				<path style="fill:#F9C302;" d="M139.283,225.638c0.079,0.001,0.158,0.002,0.237,0.004c5.928,3.804,10.168,2.006,14.1,1.074
					c0.432-0.033,0.831-0.003,1.198,0.071c4.662,0.949,6.185,9.565,6.336,10.473c1.799,6.363,4.886,6.66,4.918,11.626
					c0.032,4.935-2.544,8.557-3.341,9.809c-3.382,5.313-5.3,15.965,1.605,39.531c-14.877-1.782-29.754-3.564-44.63-5.346
					c2.472-6.284,5.244-15.27,6.267-26.351c1.054-11.419,2.094-21.086,0.744-27.816
					C126.513,226.154,139.194,225.637,139.283,225.638z"/>
			</g>
			<path style="fill:#002E5C;" d="M152.75,247.265l8.411,14.667c0,0,0.947-2.613,2.031-3.697
				C160.543,254.205,152.75,247.265,152.75,247.265z"/>
			<g>
				<g>
					<g>
						<path style="fill:#E1B89F;" d="M205.683,242.212c4.484-2.66,8.568-4.59,9.109-3.99c0.541,0.599-2.44,3.148-2.44,3.148
							s1.971-1.106,2.686-0.361c0.716,0.745-0.97,2.12-0.97,2.12s1.824-0.887,2.306,0.083c0.482,0.969-0.932,2.284-0.932,2.284
							s1.031-0.086,1.388,0.6c0.357,0.686-2.531,3.029-4.479,4.775c-6.444,5.774-15.193,6.074-14.405-1.555"/>
						<g>
							<path style="fill:#002E5C;" d="M206.312,241.395c-0.29,0.443-0.656,0.807-1.016,1.177c-0.383,0.347-0.76,0.7-1.213,0.974
								c0.29-0.443,0.656-0.807,1.016-1.177C205.482,242.023,205.859,241.67,206.312,241.395z"/>
						</g>
						<g>
							<path style="fill:#F9C302;" d="M173.18,246.483l-14.49-17.878c-4.444-5.242-11.453,2.363-17.678,3.587
								c-1.332,0.262,2.99,7.285,20.52,24.447C167.279,255.33,170.316,252.421,173.18,246.483z"/>
						</g>
						<g>
							<path style="fill:#002E5C;" d="M161.532,256.639c-2.318-2.191-4.558-4.459-6.804-6.72c-2.223-2.285-4.452-4.563-6.602-6.919
								c2.318,2.191,4.558,4.459,6.804,6.72C157.152,252.005,159.381,254.284,161.532,256.639z"/>
						</g>
						<path style="fill:#E1B89F;" d="M197.99,249.058l-14.251,8.705l-10.559-11.279c-2.864,5.938-5.901,8.846-11.648,10.156
							c0.028,0.027,0.056,0.055,0.084,0.082c1.417,1.381,6.822,6.472,12.887,12.537c14.619,14.62,33.667-18.118,33.667-18.118
							L197.99,249.058z"/>
						<g>
							<path style="fill:#002E5C;" d="M209.993,242.94c0.536-0.474,1.117-0.87,1.678-1.293l0.859-0.609
								c0.284-0.206,0.576-0.402,0.855-0.624c-0.409,0.595-0.986,1.035-1.549,1.463C211.251,242.277,210.654,242.663,209.993,242.94
								z"/>
						</g>
						<g>
							<path style="fill:#002E5C;" d="M211.866,244.677c0.989-0.75,1.89-1.538,2.908-2.262c-0.183,0.253-0.381,0.494-0.599,0.715
								c-0.216,0.223-0.453,0.425-0.689,0.627C212.99,244.13,212.471,244.495,211.866,244.677z"/>
						</g>
						<g>
							<path style="fill:#002E5C;" d="M213.85,246.59c0.708-0.736,1.478-1.322,2.279-1.94c-0.239,0.458-0.617,0.81-0.993,1.143
								C214.736,246.102,214.328,246.4,213.85,246.59z"/>
						</g>
						<g>
							<path style="fill:#002E5C;" d="M170.934,244.253c-0.044,1.34-0.5,2.648-1.165,3.816c-0.668,1.174-1.595,2.183-2.624,3.048
								c-1.039,0.866-2.235,1.506-3.45,2.069c-0.618,0.259-1.256,0.471-1.882,0.704l-1.943,0.496l1.898-0.628
								c0.613-0.258,1.236-0.491,1.837-0.771c1.181-0.597,2.358-1.224,3.361-2.089c1.024-0.83,1.924-1.816,2.617-2.94
								C170.264,246.835,170.785,245.582,170.934,244.253z"/>
						</g>
					</g>
				</g>
			</g>
			<g>
				<path style="fill:#002E5C;" d="M120.101,290.224c7.4,0.811,14.781,1.773,22.172,2.654c7.379,0.981,14.768,1.882,22.137,2.934
					c-7.4-0.81-14.781-1.772-22.172-2.654C134.859,292.177,127.471,291.276,120.101,290.224z"/>
			</g>
			<g>
				<polygon style="fill:#002E5C;" points="150.48,222.002 153.259,218.883 152.788,224.219 				"/>
				<path style="fill:#E1B89F;" d="M158.9,213.351c0.488,4.26-2.571,7.98-6.815,8.467l-4.449,0.51
					c-4.244,0.487-8.066-2.444-8.555-6.704l-1.724-15.032c-0.489-4.26,2.554-8.124,6.799-8.611l4.449-0.51
					c4.244-0.487,8.083,2.588,8.571,6.848L158.9,213.351z"/>
				<path style="fill:#002E5C;" d="M138.25,219.532c6.167,3.25,10.258-2.316,8.879-6.783c-1.379-4.467,0.988-3.766,2.888-5.117
					c1.9-1.35-1.254-4.577,0.853-6.684c2.107-2.107,5.836-4.11,5.15-6.93c-0.686-2.82-17.27-11.32-23.603,3.263
					C126.083,211.865,138.25,219.532,138.25,219.532z"/>
				<g>
					<path style="fill:#E1B89F;" d="M150.154,209.963c0.208,1.816-0.691,3.411-2.009,3.562c-1.318,0.151-2.555-1.199-2.763-3.015
						c-0.208-1.816,0.691-3.411,2.009-3.562C148.709,206.797,149.946,208.147,150.154,209.963z"/>
					<g>
						<path style="fill:#002E5C;" d="M148.507,212.271c-0.432-0.317-0.587-0.913-0.523-1.445c0.027-0.271,0.121-0.537,0.275-0.773
							c0.153-0.232,0.397-0.443,0.701-0.494l-0.112,0.172c-0.106-0.449-0.302-0.882-0.635-1.18c-0.32-0.287-0.877-0.39-1.239-0.04
							c0.137-0.199,0.379-0.334,0.638-0.351c0.259-0.017,0.52,0.073,0.732,0.223c0.429,0.31,0.64,0.808,0.777,1.281
							c0.021,0.072-0.021,0.147-0.093,0.168c-0.005,0.001-0.02,0.004-0.02,0.004c-0.436,0.074-0.716,0.557-0.803,1.025
							C148.114,211.331,148.16,211.877,148.507,212.271z"/>
					</g>
				</g>
				<g>
					<defs>
						<path id="SVGID_1_" d="M158.9,213.351c0.488,4.26-2.571,7.98-6.815,8.467l-4.449,0.51c-4.244,0.487-8.066-2.444-8.555-6.704
							l-1.724-15.032c-0.489-4.26,2.554-8.124,6.799-8.611l4.449-0.51c4.244-0.487,8.083,2.588,8.571,6.848L158.9,213.351z"/>
					</defs>
					<clipPath id="SVGID_00000005957896820574087010000006717044392230318984_">
						<use xlink:href="#SVGID_1_"  style="overflow:visible;"/>
					</clipPath>
				</g>
				<path style="fill:#002E5C;" d="M156.266,204.508c0.091,0.794-0.067,1.465-0.354,1.497c-0.287,0.033-0.593-0.584-0.684-1.378
					c-0.091-0.794,0.068-1.465,0.354-1.498C155.869,203.097,156.175,203.714,156.266,204.508z"/>
				<path style="fill:#E1B89F;" d="M157.913,204.746c0,0,0.26,3.242,1.148,3.947c0.887,0.705-0.211,2.444-1.444,1.779
					C156.384,209.806,157.913,204.746,157.913,204.746z"/>
				<path style="fill:#FFFFFF;" d="M157.863,214.312c-0.903,1.638-1.611-0.762-1.611-0.762L157.863,214.312z"/>
				<path style="fill:#E19D9F;" d="M153.319,210.951c0.072,0.625,0.906,1.042,1.864,0.932c0.958-0.11,1.677-0.705,1.605-1.33
					c-0.072-0.625-0.906-1.042-1.865-0.932C153.966,209.731,153.247,210.326,153.319,210.951z"/>
			</g>
			<path style="fill:#005CBF;" d="M138.357,212.025c1.705,2.529,1.511,5.643-0.433,6.953c-1.945,1.311-4.903,0.323-6.608-2.206
				c-1.705-2.529-1.511-5.643,0.433-6.953C133.693,208.508,136.651,209.495,138.357,212.025z"/>
			<path style="fill:#002E5C;" d="M132.107,212.271c-13.728,0-23.857,23.729-16.607,22.479c-8,19,2.81,13.468,7.177,6.96
				c0,16.54,10.573,7.369,10.573-1.296c6.5,9.835,8.863,2.003,4.057-8.831c8.978,5.881-0.473-16.7-0.473-16.7
				S134.965,212.271,132.107,212.271z"/>
			<g>
				<path style="fill:#002E5C;" d="M139.523,189.851c-0.841,0.363-1.667,0.746-2.427,1.246c-0.762,0.49-1.502,1.019-2.168,1.636
					c-0.686,0.592-1.32,1.245-1.92,1.927c-0.595,0.687-1.165,1.4-1.675,2.16c0.842-1.632,2.042-3.068,3.408-4.3
					c0.692-0.608,1.444-1.151,2.243-1.609C137.776,190.435,138.649,190.115,139.523,189.851z"/>
			</g>
			<g>
				<path style="fill:#002E5C;" d="M153.259,191.917c-0.751-0.646-1.609-1.145-2.485-1.585c-0.882-0.431-1.792-0.807-2.734-1.089
					c-1.873-0.601-3.824-0.924-5.79-1.159c0.99,0.018,1.984,0.072,2.966,0.228c0.987,0.132,1.953,0.384,2.909,0.661
					C150.003,189.598,151.874,190.476,153.259,191.917z"/>
			</g>
			<g>
				<path style="fill:#002E5C;" d="M126.797,214.047c-1.399,0.232-2.677,0.862-3.864,1.592c-1.192,0.734-2.291,1.615-3.321,2.566
					c-1.049,0.932-2.029,1.942-2.972,2.984c-0.941,1.045-1.86,2.113-2.723,3.228c1.567-2.346,3.418-4.509,5.505-6.422
					c1.055-0.941,2.165-1.837,3.399-2.542C124.043,214.745,125.382,214.175,126.797,214.047z"/>
			</g>
			<g>
				<path style="fill:#002E5C;" d="M138.083,220.505c1.162,1.342,2.02,2.922,2.734,4.544c0.332,0.823,0.648,1.655,0.876,2.513
					c0.248,0.852,0.406,1.727,0.531,2.602c-0.45-1.71-0.965-3.393-1.668-5.005c-0.327-0.816-0.723-1.601-1.129-2.38
					C139.014,222.004,138.581,221.236,138.083,220.505z"/>
			</g>
			<g>
				<path style="fill:#002E5C;" d="M116.583,233.917c-0.508,0.655-0.968,1.345-1.441,2.023c-0.465,0.684-0.936,1.363-1.369,2.066
					c-0.45,0.692-0.868,1.403-1.261,2.127c-0.381,0.728-0.75,1.472-0.928,2.284c0.075-0.832,0.381-1.629,0.733-2.382
					c0.357-0.754,0.782-1.472,1.217-2.182C114.451,236.467,115.417,235.105,116.583,233.917z"/>
			</g>
			<g>
				<path style="fill:#002E5C;" d="M126.757,257.923c-0.071-3.782-0.033-7.563-0.003-11.344c0.062-3.781,0.116-7.561,0.28-11.34
					c0.072,3.782,0.033,7.563,0.003,11.344C126.974,250.363,126.92,254.144,126.757,257.923z"/>
			</g>
		</g>
		<g>
			<polygon style="fill:#002E5C;" points="35.598,435.768 86.673,435.562 137.748,435.487 239.898,435.344 342.048,435.486 
				393.123,435.56 444.198,435.768 393.123,435.976 342.048,436.051 239.898,436.193 137.748,436.05 86.673,435.975 			"/>
		</g>
		<g>
			<path style="fill:#C0BED3;" d="M423.773,255.266h-29.426V237.37c0-1.982,1.607-3.589,3.589-3.589h22.247
				c1.982,0,3.589,1.607,3.589,3.589V255.266z"/>
			<rect x="224.47" y="245.495" style="fill:#C0BED3;" width="199.303" height="133.813"/>
			
				<rect x="259.91" y="215.446" transform="matrix(-1.836970e-16 1 -1 -1.836970e-16 636.5236 -11.7199)" style="fill:#FFFFFF;" width="128.423" height="193.913"/>
			
				<rect x="398.083" y="237.579" style="fill:none;stroke:#FFFFFF;stroke-width:0.5669;stroke-linecap:round;stroke-linejoin:round;stroke-miterlimit:10;" width="4.523" height="3.993"/>
			
				<line style="fill:none;stroke:#FFFFFF;stroke-width:0.5669;stroke-linecap:round;stroke-linejoin:round;stroke-miterlimit:10;" x1="414.661" y1="241.572" x2="419.184" y2="237.579"/>
			
				<line style="fill:none;stroke:#FFFFFF;stroke-width:0.5669;stroke-linecap:round;stroke-linejoin:round;stroke-miterlimit:10;" x1="414.661" y1="237.579" x2="419.184" y2="241.572"/>
			
				<line style="fill:none;stroke:#FFFFFF;stroke-width:0.5669;stroke-linecap:round;stroke-linejoin:round;stroke-miterlimit:10;" x1="406.379" y1="241.572" x2="410.902" y2="241.572"/>
		</g>
		<g>
			<path style="fill:#E2B9A0;" d="M383.26,312.084"/>
			<g>
				<g>
					<polygon style="fill:#F9A402;" points="324.122,285.494 389.453,226.319 258.79,226.319 					"/>
				</g>
				<g>
					<polyline style="fill:#F9A402;" points="258.79,226.319 324.122,168.855 389.453,226.319 					"/>
				</g>
				<path style="fill:#E2E0F4;" d="M272.472,275.715h103.299V137.709h-83.879c-7.584,7.584-11.836,11.836-19.421,19.421V275.715z"/>
				<polygon style="fill:#C0BED3;" points="291.893,137.709 291.893,157.377 272.472,157.377 				"/>
				<g>
					<g>
						<rect x="285.47" y="171.743" style="fill:#C0BED3;" width="77.303" height="2.736"/>
						<rect x="285.47" y="176.617" style="fill:#C0BED3;" width="77.303" height="2.736"/>
						<rect x="285.47" y="181.492" style="fill:#C0BED3;" width="77.303" height="2.736"/>
						<rect x="285.47" y="186.366" style="fill:#C0BED3;" width="77.303" height="2.736"/>
						<rect x="285.47" y="191.24" style="fill:#C0BED3;" width="77.303" height="2.736"/>
						<rect x="285.47" y="196.115" style="fill:#C0BED3;" width="77.303" height="2.736"/>
						<rect x="285.47" y="200.989" style="fill:#C0BED3;" width="77.303" height="2.736"/>
						<rect x="285.47" y="205.863" style="fill:#C0BED3;" width="77.303" height="2.736"/>
						<rect x="285.47" y="210.738" style="fill:#C0BED3;" width="77.303" height="2.736"/>
						<rect x="285.47" y="215.612" style="fill:#C0BED3;" width="77.303" height="2.736"/>
						<rect x="285.47" y="220.486" style="fill:#C0BED3;" width="77.303" height="2.737"/>
						<rect x="285.47" y="225.36" style="fill:#C0BED3;" width="77.303" height="2.736"/>
						<rect x="285.47" y="230.235" style="fill:#C0BED3;" width="77.303" height="2.736"/>
						<rect x="285.47" y="235.109" style="fill:#C0BED3;" width="77.303" height="2.736"/>
						<rect x="285.47" y="239.983" style="fill:#C0BED3;" width="77.303" height="2.736"/>
						<rect x="285.47" y="244.857" style="fill:#C0BED3;" width="77.303" height="2.736"/>
					</g>
					<g>
						<rect x="285.47" y="171.743" style="fill:#C3C5D1;" width="77.303" height="2.736"/>
						<rect x="285.47" y="176.617" style="fill:#C3C5D1;" width="77.303" height="2.736"/>
						<rect x="285.47" y="181.492" style="fill:#C3C5D1;" width="77.303" height="2.736"/>
						<rect x="285.47" y="186.366" style="fill:#C3C5D1;" width="77.303" height="2.736"/>
						<rect x="285.47" y="191.24" style="fill:#C3C5D1;" width="77.303" height="2.736"/>
						<rect x="285.47" y="196.115" style="fill:#C3C5D1;" width="77.303" height="2.736"/>
						<rect x="285.47" y="200.989" style="fill:#C3C5D1;" width="77.303" height="2.736"/>
						<rect x="285.47" y="205.863" style="fill:#C3C5D1;" width="77.303" height="2.736"/>
						<rect x="285.47" y="210.738" style="fill:#C3C5D1;" width="77.303" height="2.736"/>
						<rect x="285.47" y="215.612" style="fill:#C3C5D1;" width="77.303" height="2.736"/>
						<rect x="285.47" y="220.486" style="fill:#C3C5D1;" width="77.303" height="2.737"/>
						<rect x="285.47" y="225.36" style="fill:#C3C5D1;" width="77.303" height="2.736"/>
						<rect x="285.47" y="230.235" style="fill:#C3C5D1;" width="77.303" height="2.736"/>
						<rect x="285.47" y="235.109" style="fill:#C3C5D1;" width="77.303" height="2.736"/>
						<rect x="285.47" y="239.983" style="fill:#C3C5D1;" width="77.303" height="2.736"/>
						<rect x="285.47" y="244.857" style="fill:#C3C5D1;" width="77.303" height="2.736"/>
					</g>
				</g>
				<g>
					<polygon style="fill:#F9C302;" points="258.79,313.2 389.453,313.2 389.453,226.319 324.122,285.494 258.79,226.319 					"/>
				</g>
				<g>
					<path style="fill:#FCD14E;" d="M258.79,313.2h130.663l-52.032-44.132c-7.672-6.507-18.927-6.507-26.599,0L258.79,313.2z"/>
				</g>
			</g>
		</g>
		<g>
			<polygon style="fill:#002E5C;" points="14,435.973 73,435.766 132,435.691 250,435.549 368,435.69 427,435.765 486,435.973 
				427,436.181 368,436.256 250,436.397 132,436.255 73,436.18 			"/>
		</g>
		<g>
			<path style="fill:#002E5C;" d="M139.42,226.782c1.001,0.643,2.089,1.136,3.203,1.517c1.119,0.372,2.283,0.611,3.456,0.648
				c0.587,0.05,1.172-0.013,1.758-0.051c0.575-0.115,1.162-0.184,1.717-0.383c1.143-0.305,2.179-0.897,3.196-1.513
				c-0.955,0.701-1.972,1.371-3.129,1.72c-1.133,0.404-2.351,0.565-3.553,0.509C143.661,229.113,141.311,228.227,139.42,226.782z"/>
		</g>
		<g>
			<path style="fill:#002E5C;" d="M180.578,254.386c0.971,0.812,1.866,1.7,2.766,2.582c0.877,0.905,1.76,1.805,2.566,2.782
				c-0.972-0.811-1.866-1.7-2.766-2.582C182.267,256.262,181.384,255.363,180.578,254.386z"/>
		</g>
		<g>
			<path style="fill:#E2B9A0;" d="M249.742,159.713"/>
			<g>
				<polygon style="fill:#E2E0F4;" points="241.531,129.4 196.778,146.282 208.004,176.039 222.735,147.33 252.757,159.157 				"/>
				
					<polyline style="fill:#E2E0F4;stroke:#FFFFFF;stroke-width:0.5669;stroke-linecap:round;stroke-linejoin:round;stroke-miterlimit:10;" points="
					252.757,159.157 222.735,147.33 208.004,176.039 				"/>
				
					<path style="fill:#E2E0F4;stroke:#FFFFFF;stroke-width:0.5669;stroke-linecap:round;stroke-linejoin:round;stroke-miterlimit:10;" d="
					M196.778,146.282l23.523,8.392c3.469,1.237,7.323-0.217,9.11-3.437l12.119-21.838"/>
			</g>
		</g>
		<g>
			<path style="fill:#E2B9A0;" d="M432.185,183.728"/>
			<g>
				<polygon style="fill:#E2E0F4;" points="443.791,154.546 397.854,141.219 388.993,171.764 417.997,157.623 434.93,185.09 				"/>
				
					<polyline style="fill:#E2E0F4;stroke:#FFFFFF;stroke-width:0.5669;stroke-linecap:round;stroke-linejoin:round;stroke-miterlimit:10;" points="
					434.93,185.09 417.997,157.623 388.993,171.764 				"/>
				
					<path style="fill:#E2E0F4;stroke:#FFFFFF;stroke-width:0.5669;stroke-linecap:round;stroke-linejoin:round;stroke-miterlimit:10;" d="
					M397.854,141.219l13.792,20.822c2.034,3.07,5.99,4.218,9.351,2.713l22.794-10.209"/>
			</g>
		</g>
		<g>
			<path style="fill:#E2B9A0;" d="M412.217,130.505"/>
			<g>
				<polygon style="fill:#E2E0F4;" points="424.571,115.447 399.936,98.923 388.949,115.303 408.75,112.409 413.583,131.827 				"/>
				
					<polyline style="fill:#E2E0F4;stroke:#FFFFFF;stroke-width:0.5669;stroke-linecap:round;stroke-linejoin:round;stroke-miterlimit:10;" points="
					413.583,131.827 408.75,112.409 388.949,115.303 				"/>
				
					<path style="fill:#E2E0F4;stroke:#FFFFFF;stroke-width:0.5669;stroke-linecap:round;stroke-linejoin:round;stroke-miterlimit:10;" d="
					M399.936,98.923l4.229,14.901c0.624,2.197,2.745,3.62,5.015,3.364l15.391-1.74"/>
			</g>
		</g>
		<g>
			<path style="fill:#E2B9A0;" d="M302.396,77.839"/>
			<g>
				<polygon style="fill:#E2E0F4;" points="315.042,63.026 290.736,46.022 279.43,62.184 299.283,59.678 303.736,79.188 				"/>
				
					<polyline style="fill:#E2E0F4;stroke:#FFFFFF;stroke-width:0.5669;stroke-linecap:round;stroke-linejoin:round;stroke-miterlimit:10;" points="
					303.736,79.188 299.283,59.678 279.43,62.184 				"/>
				
					<path style="fill:#E2E0F4;stroke:#FFFFFF;stroke-width:0.5669;stroke-linecap:round;stroke-linejoin:round;stroke-miterlimit:10;" d="
					M290.736,46.022l3.936,14.981c0.58,2.209,2.674,3.674,4.948,3.462l15.422-1.438"/>
			</g>
		</g>
		<g>
			<path style="fill:#E2B9A0;" d="M354.439,99.492"/>
			<g>
				<polygon style="fill:#E2E0F4;" points="360.448,80.965 331.484,74.565 327.228,93.824 344.609,83.907 356.193,100.225 				"/>
				
					<polyline style="fill:#E2E0F4;stroke:#FFFFFF;stroke-width:0.5669;stroke-linecap:round;stroke-linejoin:round;stroke-miterlimit:10;" points="
					356.193,100.225 344.609,83.907 327.228,93.824 				"/>
				
					<path style="fill:#E2E0F4;stroke:#FFFFFF;stroke-width:0.5669;stroke-linecap:round;stroke-linejoin:round;stroke-miterlimit:10;" d="
					M331.484,74.565l9.372,12.331c1.382,1.818,3.877,2.37,5.896,1.303l13.696-7.234"/>
			</g>
		</g>
		<g>
			<path style="fill:#E2B9A0;" d="M225.943,124.63"/>
			<g>
				<polygon style="fill:#E2E0F4;" points="229.999,112.13 210.455,107.811 207.583,120.806 219.311,114.115 227.127,125.125 				
					"/>
				
					<polyline style="fill:#E2E0F4;stroke:#FFFFFF;stroke-width:0.5669;stroke-linecap:round;stroke-linejoin:round;stroke-miterlimit:10;" points="
					227.127,125.125 219.311,114.115 207.583,120.806 				"/>
				
					<path style="fill:#E2E0F4;stroke:#FFFFFF;stroke-width:0.5669;stroke-linecap:round;stroke-linejoin:round;stroke-miterlimit:10;" d="
					M210.455,107.811l6.324,8.321c0.932,1.227,2.616,1.599,3.979,0.879l9.241-4.881"/>
			</g>
		</g>
		<g>
			<path style="fill:#E2B9A0;" d="M402.913,89.671"/>
			<g>
				<polygon style="fill:#E2E0F4;" points="403.207,76.533 383.247,78.009 384.228,91.281 393.54,81.503 404.189,89.805 				"/>
				
					<polyline style="fill:#E2E0F4;stroke:#FFFFFF;stroke-width:0.5669;stroke-linecap:round;stroke-linejoin:round;stroke-miterlimit:10;" points="
					404.189,89.805 393.54,81.503 384.228,91.281 				"/>
				
					<path style="fill:#E2E0F4;stroke:#FFFFFF;stroke-width:0.5669;stroke-linecap:round;stroke-linejoin:round;stroke-miterlimit:10;" d="
					M383.247,78.009l8.447,6.154c1.246,0.907,2.965,0.78,4.063-0.301l7.45-7.33"/>
			</g>
		</g>
		<g>
			<path style="fill:#E2B9A0;" d="M285.821,105.693"/>
			<g>
				<polygon style="fill:#E2E0F4;" points="279.149,87.395 252.386,100.186 260.891,117.982 268.48,99.465 287.654,105.19 				"/>
				
					<polyline style="fill:#E2E0F4;stroke:#FFFFFF;stroke-width:0.5669;stroke-linecap:round;stroke-linejoin:round;stroke-miterlimit:10;" points="
					287.654,105.19 268.48,99.465 260.891,117.982 				"/>
				
					<path style="fill:#E2E0F4;stroke:#FFFFFF;stroke-width:0.5669;stroke-linecap:round;stroke-linejoin:round;stroke-miterlimit:10;" d="
					M252.386,100.186l14.978,3.946c2.208,0.582,4.514-0.52,5.448-2.604l6.337-14.133"/>
			</g>
		</g>
		<g>
			<path style="fill:#002E5C;" d="M118.921,267.195c-0.473,0.921-1.036,1.782-1.592,2.648c-0.584,0.847-1.16,1.699-1.828,2.491
				c0.472-0.922,1.036-1.782,1.592-2.648C117.676,268.839,118.253,267.987,118.921,267.195z"/>
		</g>
	</g>
</g>
</svg>
