<svg viewBox="0 0 24 24" fill="none" xmlns="http://www.w3.org/2000/svg">
  <path d="M10.33 16.593h-6.3m9.11-9.691h6.301" stroke="currentColor" stroke-width="inherit" stroke-linecap="round" stroke-linejoin="round"/>
  <path clip-rule="evenodd" d="M8.726 6.846A2.355 2.355 0 0 0 6.363 4.5 2.355 2.355 0 0 0 4 6.846a2.355 2.355 0 0 0 2.363 2.347 2.355 2.355 0 0 0 2.363-2.347M20 16.553a2.354 2.354 0 0 0-2.363-2.346 2.355 2.355 0 0 0-2.364 2.346 2.355 2.355 0 0 0 2.364 2.346A2.354 2.354 0 0 0 20 16.554" stroke="currentColor" stroke-width="inherit" stroke-linecap="round" stroke-linejoin="round"/>
</svg>
