<svg xmlns="http://www.w3.org/2000/svg" viewBox="0 0 511.999 511.999" xml:space="preserve">
  <path style="fill:#01a7ed" d="M394.11 103.652c2.807 23.246-.953 45.925-5.145 61.424-33.949 125.595-187.149 118.8-209.263 118.8-22.167 0-27.306 23.342-27.306 23.342l-16.546 81.798c-.441 2.807-1.062 5.317-1.816 7.577l-16.937 82.812s-3.135 22.368 16.841 22.368h49.875s22.984 1.472 27.495-27.271l16.546-81.798s5.14-23.342 27.306-23.342c22.116 0 175.314 6.796 209.264-118.799 10.395-38.433 18.129-121.007-70.314-146.911"/>
  <path style="fill:#4172c9" d="M219.053 95.707h111.73c25.22 0 46.097 2.897 63.326 7.944-5.508-45.623-36.31-93.43-138.783-93.43h-111.73s-23.224-1.222-28.955 26.752L41.638 393.919s-3.135 22.367 16.841 22.367h49.875s18.709 1.19 25.679-19.694L190.1 122.458c5.73-27.972 28.953-26.751 28.953-26.751"/>
  <path style="fill:#0535a8" d="M152.396 307.219s5.14-23.342 27.306-23.342c22.116 0 175.314 6.796 209.263-118.8 4.193-15.5 7.952-38.178 5.145-61.424-17.229-5.046-38.106-7.944-63.326-7.944h-111.73s-23.223-1.222-28.955 26.752z"/>
  <path style="fill:#0c306e" d="M476.166 169.725c-9.687-35.524-34.838-60.946-72.909-73.865-4.511-26.426-16.475-47.896-35.655-63.87C342.131 10.778 304.354.022 255.321.022H143.825c-11.167-.467-33.305 6.234-39.179 34.907L31.641 391.874a10 10 0 0 0-.108.628c-.22 1.572-1.905 15.638 6.632 25.457 3.382 3.889 9.651 8.525 20.308 8.525h49.602q.535.025 1.111.024c2.435 0 5.391-.348 8.561-1.207L107.1 477.359a10 10 0 0 0-.108.628c-.22 1.572-1.905 15.638 6.632 25.457 3.382 3.889 9.651 8.525 20.308 8.525h49.593q.611.03 1.261.03c11.544 0 31.991-7.274 36.556-35.689l16.482-81.478c.281-1.218 3.833-15.274 17.331-15.274.861 0 1.927.011 3.181.022 16.557.162 60.545.605 105.734-14.622 25.951-8.744 48.038-21.327 65.645-37.4 21.542-19.664 36.531-44.676 44.549-74.336 4.587-16.961 10.937-50.365 1.902-83.497m-97.051-7.312c-19.699 72.878-85.909 111.312-191.623 111.309-1.459 0-2.938-.008-4.412-.022a373 373 0 0 0-3.384-.023c-3.792 0-7.254.513-10.41 1.418l30.8-150.588c3.589-17.517 15.475-18.609 18.368-18.609l.121.001c.217.017.208.009.474.009h111.73c20.137 0 38.203 1.935 53.825 5.754 1.366 21.206-2.73 40.555-5.489 50.751m-270.19 243.688c-.263-.023-.269-.014-.577-.014H58.474c-3.58 0-4.57-1.121-4.896-1.489-1.735-1.961-2.128-6.501-1.869-9.045L124.63 39.019c3.589-17.517 15.475-18.609 18.368-18.609l.121.001c.217.017.208.009.474.009h111.728c71.327 0 113.574 23.397 125.842 69.599-15.164-2.996-32.04-4.511-50.383-4.511H219.282c-11.158-.47-33.305 6.234-39.179 34.907L124.168 393.9c-4.163 11.689-13.207 12.27-15.243 12.201m53.427-96.699c.476-1.937 4.244-15.329 17.344-15.329.861 0 1.927.011 3.181.022 16.558.163 60.545.605 105.734-14.622 25.951-8.744 48.038-21.327 65.645-37.4 21.542-19.664 36.531-44.676 44.549-74.336 2.752-10.174 6.683-28.476 6.453-49.345 68.015 28.642 57.526 99.152 49.314 129.506-19.699 72.878-85.909 111.312-191.623 111.309-1.459 0-2.938-.008-4.412-.022a373 373 0 0 0-3.384-.023c-24.018 0-34.878 20.505-37.266 31.348l-.037.171-16.547 81.797q-.044.22-.079.441c-2.808 17.886-14.247 18.699-16.838 18.668-.264-.023-.271-.014-.582-.014H133.93c-3.58 0-4.57-1.121-4.896-1.489-1.735-1.961-2.128-6.501-1.869-9.045z"/>
  <path style="fill:#0c306e" d="M111.82 210.263c-5.517-1.126-10.905 2.434-12.032 7.953l-.97 4.753c-1.126 5.518 2.434 10.905 7.953 12.032.688.141 1.375.208 2.051.208 4.745 0 8.995-3.331 9.981-8.161l.97-4.753c1.126-5.518-2.435-10.905-7.953-12.032m-7.758 38.017c-5.517-1.126-10.905 2.434-12.032 7.953L66.231 382.638c-1.126 5.518 2.434 10.905 7.953 12.032.688.141 1.375.208 2.051.208 4.745 0 8.995-3.331 9.981-8.161l25.798-126.405c1.126-5.519-2.434-10.906-7.952-12.032"/>
</svg>
