<svg xmlns="http://www.w3.org/2000/svg" viewBox="0 0 286 60">
  <g stroke="currentColor" fill="inherit" fill-rule="evenodd">
    <path fill="inherit" d="M278 .5c2.071 0 3.946.84 5.303 2.197A7.47 7.47 0 0 1 285.5 8v44c0 2.071-.84 3.946-2.197 5.303A7.47 7.47 0 0 1 278 59.5H64.973a4.5 4.5 0 0 0-1.291-2.682A4.5 4.5 0 0 0 60.5 55.5a4.5 4.5 0 0 0-3.182 1.318 4.5 4.5 0 0 0-1.29 2.682H8a7.48 7.48 0 0 1-5.303-2.197A7.47 7.47 0 0 1 .5 52V8c0-2.071.84-3.946 2.197-5.303A7.47 7.47 0 0 1 8 .5h48.027a4.5 4.5 0 0 0 1.291 2.682A4.5 4.5 0 0 0 60.5 4.5a4.5 4.5 0 0 0 3.182-1.318A4.5 4.5 0 0 0 64.972.5z"/>
    <path d="M60.5 8v48" stroke-dasharray="2 4" stroke-linecap="square"/>
  </g>
</svg>
