<svg viewBox="0 0 24 24" xmlns="http://www.w3.org/2000/svg">
  <g fill="none" fill-rule="evenodd">
    <path d="m19 15 .002-1.245.004-1.954.003-1.691c.004-2.232.003-4.148 0-4.74-.33-.206-.846-.524-1.118-.706C16.414 3.68 14.26 3 12 3 9.838 3 7.029 4.051 6.11 4.664c-.27.18-.779.494-1.11.7V15c0 1.508 2.23 3.569 7 5.802 4.772-2.228 7-4.288 7-5.802" fill="#D6EFDF"/>
    <path d="M12 1c2.995 0 5.5 1 7 2s2 1 2 2c.026.291 0 8.5 0 10q0 4-9 8-9-4.01-9-8V5c0-1 .5-1 2-2 .162-.108 3.563-2 7-2m0 2C9.838 3 7.029 4.051 6.11 4.664c-.27.18-.779.494-1.11.7V15c0 1.508 2.23 3.569 7 5.802 4.772-2.228 7-4.288 7-5.802v-.694l.001-.167v-.384l.005-1.954.003-1.691v-.575c.004-1.98.003-3.625 0-4.166-.33-.205-.846-.523-1.118-.705C16.414 3.68 14.26 3 12 3m3.293 5.293 1.414 1.414L11 15.414l-3.707-3.707 1.414-1.414L11 12.586z" fill="#449460"/>
  </g>
</svg>
