<svg xmlns="http://www.w3.org/2000/svg" viewBox="0 0 20 20">
  <path d="M10 0c5.523 0 10 4.477 10 10s-4.477 10-10 10S0 15.523 0 10 4.477 0 10 0M9 11l-2.042.001c-.168 1.987-.834 3.84-1.909 5.283A7.95 7.95 0 0 0 9 17.938zm4.257 0H11l.001 6.938a7.97 7.97 0 0 0 4.086-1.763c-1.04-1.484-1.67-3.259-1.83-5.175m-11.195.001a7.96 7.96 0 0 0 1.562 3.832c.715-1.058 1.178-2.39 1.325-3.832zm15.876 0h-2.673c.137 1.351.558 2.6 1.226 3.674a7.95 7.95 0 0 0 1.447-3.674m0-2.001a8 8 0 0 0-1.441-3.67c-.659 1.03-1.086 2.3-1.229 3.67zM3.618 5.177l-.102.136A7.94 7.94 0 0 0 2.062 9h2.887c-.147-1.415-.604-2.717-1.331-3.823m7.383-3.115L11 9h2.26c.166-1.936.805-3.743 1.836-5.168a7.97 7.97 0 0 0-4.095-1.77M9 2.062a7.96 7.96 0 0 0-3.958 1.659C6.13 5.226 6.79 7.039 6.958 9.001L9 9z" fill="currentColor"/>
</svg>
